<?xml version="1.0" standalone="no"?>
<!DOCTYPE svg PUBLIC "-//W3C//DTD SVG 20010904//EN"
 "http://www.w3.org/TR/2001/REC-SVG-20010904/DTD/svg10.dtd">
<svg version="1.0" xmlns="http://www.w3.org/2000/svg"
 width="512.000000pt" height="512.000000pt" viewBox="0 0 512.000000 512.000000"
 preserveAspectRatio="xMidYMid meet">

<g transform="translate(0.000000,512.000000) scale(0.100000,-0.100000)"
 stroke="none">
<path d="M1749 4680 c-630 -107 -1030 -737 -853 -1346 105 -364 391 -642 762
-741 86 -23 116 -26 262 -26 146 0 176 3 262 26 372 99 657 376 762 741 174
601 -218 1231 -834 1342 -80 14 -286 17 -361 4z m338 -436 c321 -84 527 -420
458 -749 -49 -233 -245 -435 -475 -489 -83 -20 -217 -20 -298 -1 -177 42 -341
173 -421 335 -69 141 -87 279 -55 423 57 257 270 456 529 496 71 11 188 4 262
-15z"/>
<path d="M4002 3620 c-57 -13 -108 -55 -136 -111 -26 -53 -26 -55 -26 -285 l0
-232 -242 -4 -243 -3 -47 -28 c-121 -71 -143 -233 -45 -331 61 -61 90 -66 351
-66 l226 0 0 -227 c0 -131 5 -244 11 -267 15 -54 83 -119 142 -135 95 -27 195
13 244 97 l28 47 3 243 4 242 232 0 c230 0 232 0 285 26 127 64 155 219 59
328 -59 68 -96 76 -360 76 l-218 0 0 216 c0 125 -5 234 -11 259 -17 66 -78
131 -142 150 -55 16 -66 17 -115 5z"/>
<path d="M1125 2123 c-67 -10 -188 -45 -263 -77 -353 -148 -597 -480 -642
-872 -7 -58 -10 -202 -8 -344 3 -228 4 -248 25 -285 40 -76 105 -115 188 -115
85 0 160 48 196 125 17 36 19 68 19 308 0 210 3 284 16 340 54 238 225 416
465 484 59 17 118 18 799 18 828 0 788 3 943 -77 141 -74 256 -213 308 -373
21 -64 23 -95 28 -375 7 -332 7 -335 68 -391 50 -47 90 -62 159 -57 78 5 136
41 174 108 24 44 25 51 28 280 4 268 -8 412 -44 537 -103 360 -378 634 -744
740 l-95 27 -795 2 c-437 1 -808 -1 -825 -3z"/>
</g>
</svg>
