<svg width="32" height="37" viewBox="0 0 32 37" fill="none" xmlns="http://www.w3.org/2000/svg">
<path d="M12.5833 32.875H19.4167C19.4167 34.7542 17.8792 36.2917 16 36.2917C14.1208 36.2917 12.5833 34.7542 12.5833 32.875ZM31.375 29.4584V31.1667H0.625V29.4584L4.04167 26.0417V15.7917C4.04167 10.4959 7.45833 5.88335 12.5833 4.34585V3.83335C12.5833 1.95419 14.1208 0.416687 16 0.416687C17.8792 0.416687 19.4167 1.95419 19.4167 3.83335V4.34585C24.5417 5.88335 27.9583 10.4959 27.9583 15.7917V26.0417L31.375 29.4584ZM24.5417 15.7917C24.5417 11.0084 20.7833 7.25002 16 7.25002C11.2167 7.25002 7.45833 11.0084 7.45833 15.7917V27.75H24.5417V15.7917Z" fill="#EDEDF1"/>
</svg>
