<svg id="visual" viewBox="0 0 900 600" width="900" height="600" xmlns="http://www.w3.org/2000/svg" xmlns:xlink="http://www.w3.org/1999/xlink" version="1.1"><g stroke-width="1" stroke-linejoin="bevel"><path d="M433 319L434 359L466 332Z" fill="#5b5d60" stroke="#5b5d60"></path><path d="M434 359L469 368L466 332Z" fill="#5b5d60" stroke="#5b5d60"></path><path d="M434 359L461 387L469 368Z" fill="#727272" stroke="#727272"></path><path d="M433 319L382 341L434 359Z" fill="#393e45" stroke="#393e45"></path><path d="M434 359L432 400L461 387Z" fill="#19222c" stroke="#19222c"></path><path d="M382 341L432 400L434 359Z" fill="#727272" stroke="#727272"></path><path d="M508 316L483 285L466 332Z" fill="#0f1924" stroke="#0f1924"></path><path d="M466 332L483 285L433 319Z" fill="#242b34" stroke="#242b34"></path><path d="M433 319L379 323L382 341Z" fill="#19222c" stroke="#19222c"></path><path d="M414 272L379 323L433 319Z" fill="#727272" stroke="#727272"></path><path d="M541 314L508 316L574 377Z" fill="#0f1924" stroke="#0f1924"></path><path d="M469 368L508 316L466 332Z" fill="#2e343c" stroke="#2e343c"></path><path d="M483 285L414 272L433 319Z" fill="#393e45" stroke="#393e45"></path><path d="M414 272L370 322L379 323Z" fill="#5b5d60" stroke="#5b5d60"></path><path d="M379 323L370 322L382 341Z" fill="#666769" stroke="#666769"></path><path d="M432 400L481 415L461 387Z" fill="#0f1924" stroke="#0f1924"></path><path d="M461 387L481 415L469 368Z" fill="#19222c" stroke="#19222c"></path><path d="M541 314L536 303L508 316Z" fill="#727272" stroke="#727272"></path><path d="M508 316L530 281L483 285Z" fill="#00101c" stroke="#00101c"></path><path d="M574 377L508 316L469 368Z" fill="#666769" stroke="#666769"></path><path d="M578 313L530 281L536 303Z" fill="#393e45" stroke="#393e45"></path><path d="M536 303L530 281L508 316Z" fill="#00101c" stroke="#00101c"></path><path d="M483 285L479 228L414 272Z" fill="#19222c" stroke="#19222c"></path><path d="M370 322L331 362L382 341Z" fill="#19222c" stroke="#19222c"></path><path d="M382 341L356 447L432 400Z" fill="#727272" stroke="#727272"></path><path d="M286 324L331 362L370 322Z" fill="#2e343c" stroke="#2e343c"></path><path d="M530 281L479 228L483 285Z" fill="#00101c" stroke="#00101c"></path><path d="M356 447L427 467L432 400Z" fill="#393e45" stroke="#393e45"></path><path d="M432 400L427 467L481 415Z" fill="#666769" stroke="#666769"></path><path d="M427 467L488 466L481 415Z" fill="#0f1924" stroke="#0f1924"></path><path d="M481 415L574 377L469 368Z" fill="#19222c" stroke="#19222c"></path><path d="M561 433L574 377L481 415Z" fill="#19222c" stroke="#19222c"></path><path d="M541 314L578 313L536 303Z" fill="#00101c" stroke="#00101c"></path><path d="M574 377L578 313L541 314Z" fill="#00101c" stroke="#00101c"></path><path d="M530 281L516 218L479 228Z" fill="#242b34" stroke="#242b34"></path><path d="M331 362L356 447L382 341Z" fill="#666769" stroke="#666769"></path><path d="M605 228L516 218L530 281Z" fill="#242b34" stroke="#242b34"></path><path d="M329 227L318 272L414 272Z" fill="#2e343c" stroke="#2e343c"></path><path d="M414 272L318 272L370 322Z" fill="#2e343c" stroke="#2e343c"></path><path d="M516 218L490 202L479 228Z" fill="#2e343c" stroke="#2e343c"></path><path d="M434 174L381 206L414 272Z" fill="#2e343c" stroke="#2e343c"></path><path d="M503 513L513 466L488 466Z" fill="#0f1924" stroke="#0f1924"></path><path d="M488 466L513 466L481 415Z" fill="#2e343c" stroke="#2e343c"></path><path d="M434 174L414 272L479 228Z" fill="#44484e" stroke="#44484e"></path><path d="M552 448L561 433L481 415Z" fill="#4f5257" stroke="#4f5257"></path><path d="M295 416L324 431L331 362Z" fill="#393e45" stroke="#393e45"></path><path d="M331 362L324 431L356 447Z" fill="#666769" stroke="#666769"></path><path d="M513 466L552 448L481 415Z" fill="#242b34" stroke="#242b34"></path><path d="M318 272L286 324L370 322Z" fill="#4f5257" stroke="#4f5257"></path><path d="M381 206L329 227L414 272Z" fill="#2e343c" stroke="#2e343c"></path><path d="M318 272L277 272L286 324Z" fill="#727272" stroke="#727272"></path><path d="M490 202L434 174L479 228Z" fill="#0f1924" stroke="#0f1924"></path><path d="M381 206L317 184L329 227Z" fill="#242b34" stroke="#242b34"></path><path d="M591 432L594 412L561 433Z" fill="#5b5d60" stroke="#5b5d60"></path><path d="M561 433L594 412L574 377Z" fill="#00101c" stroke="#00101c"></path><path d="M574 377L624 358L578 313Z" fill="#5b5d60" stroke="#5b5d60"></path><path d="M273 372L295 416L331 362Z" fill="#393e45" stroke="#393e45"></path><path d="M425 512L436 508L427 467Z" fill="#00101c" stroke="#00101c"></path><path d="M427 467L436 508L488 466Z" fill="#0f1924" stroke="#0f1924"></path><path d="M513 466L527 512L552 448Z" fill="#0f1924" stroke="#0f1924"></path><path d="M425 512L427 467L379 519Z" fill="#44484e" stroke="#44484e"></path><path d="M427 467L356 447L379 519Z" fill="#242b34" stroke="#242b34"></path><path d="M516 218L517 181L490 202Z" fill="#44484e" stroke="#44484e"></path><path d="M490 202L456 160L434 174Z" fill="#19222c" stroke="#19222c"></path><path d="M578 180L517 181L516 218Z" fill="#0f1924" stroke="#0f1924"></path><path d="M552 448L591 432L561 433Z" fill="#4f5257" stroke="#4f5257"></path><path d="M589 522L591 432L552 448Z" fill="#44484e" stroke="#44484e"></path><path d="M299 463L356 447L324 431Z" fill="#5b5d60" stroke="#5b5d60"></path><path d="M286 324L273 372L331 362Z" fill="#2e343c" stroke="#2e343c"></path><path d="M517 181L456 160L490 202Z" fill="#44484e" stroke="#44484e"></path><path d="M434 174L415 162L381 206Z" fill="#00101c" stroke="#00101c"></path><path d="M456 160L415 162L434 174Z" fill="#4f5257" stroke="#4f5257"></path><path d="M282 235L277 272L318 272Z" fill="#4f5257" stroke="#4f5257"></path><path d="M286 324L236 347L273 372Z" fill="#393e45" stroke="#393e45"></path><path d="M668 380L624 358L594 412Z" fill="#4f5257" stroke="#4f5257"></path><path d="M594 412L624 358L574 377Z" fill="#393e45" stroke="#393e45"></path><path d="M578 313L605 228L530 281Z" fill="#44484e" stroke="#44484e"></path><path d="M422 533L503 513L436 508Z" fill="#727272" stroke="#727272"></path><path d="M436 508L503 513L488 466Z" fill="#44484e" stroke="#44484e"></path><path d="M317 184L294 227L329 227Z" fill="#00101c" stroke="#00101c"></path><path d="M329 227L294 227L318 272Z" fill="#44484e" stroke="#44484e"></path><path d="M239 466L299 463L295 416Z" fill="#44484e" stroke="#44484e"></path><path d="M295 416L299 463L324 431Z" fill="#00101c" stroke="#00101c"></path><path d="M299 463L379 519L356 447Z" fill="#242b34" stroke="#242b34"></path><path d="M425 512L422 533L436 508Z" fill="#393e45" stroke="#393e45"></path><path d="M529 546L527 512L503 513Z" fill="#5b5d60" stroke="#5b5d60"></path><path d="M503 513L527 512L513 466Z" fill="#5b5d60" stroke="#5b5d60"></path><path d="M294 227L282 235L318 272Z" fill="#666769" stroke="#666769"></path><path d="M617 229L605 228L626 241Z" fill="#727272" stroke="#727272"></path><path d="M379 519L422 533L425 512Z" fill="#393e45" stroke="#393e45"></path><path d="M369 106L317 184L381 206Z" fill="#666769" stroke="#666769"></path><path d="M294 227L265 166L282 235Z" fill="#393e45" stroke="#393e45"></path><path d="M626 241L605 228L578 313Z" fill="#242b34" stroke="#242b34"></path><path d="M605 228L578 180L516 218Z" fill="#393e45" stroke="#393e45"></path><path d="M660 318L626 241L578 313Z" fill="#4f5257" stroke="#4f5257"></path><path d="M650 192L578 180L605 228Z" fill="#0f1924" stroke="#0f1924"></path><path d="M419 83L422 131L475 79Z" fill="#666769" stroke="#666769"></path><path d="M225 273L236 347L286 324Z" fill="#44484e" stroke="#44484e"></path><path d="M273 372L238 379L295 416Z" fill="#727272" stroke="#727272"></path><path d="M225 273L286 324L277 272Z" fill="#00101c" stroke="#00101c"></path><path d="M456 160L422 131L415 162Z" fill="#2e343c" stroke="#2e343c"></path><path d="M415 162L369 106L381 206Z" fill="#19222c" stroke="#19222c"></path><path d="M475 79L456 160L510 78Z" fill="#4f5257" stroke="#4f5257"></path><path d="M236 347L238 379L273 372Z" fill="#4f5257" stroke="#4f5257"></path><path d="M668 380L660 318L624 358Z" fill="#727272" stroke="#727272"></path><path d="M624 358L660 318L578 313Z" fill="#2e343c" stroke="#2e343c"></path><path d="M467 600L529 546L503 513Z" fill="#2e343c" stroke="#2e343c"></path><path d="M527 512L589 522L552 448Z" fill="#19222c" stroke="#19222c"></path><path d="M670 429L668 380L594 412Z" fill="#242b34" stroke="#242b34"></path><path d="M620 116L573 154L578 180Z" fill="#666769" stroke="#666769"></path><path d="M578 180L573 154L517 181Z" fill="#242b34" stroke="#242b34"></path><path d="M650 192L605 228L617 229Z" fill="#5b5d60" stroke="#5b5d60"></path><path d="M670 429L594 412L591 432Z" fill="#727272" stroke="#727272"></path><path d="M213 266L225 273L282 235Z" fill="#727272" stroke="#727272"></path><path d="M282 235L225 273L277 272Z" fill="#0f1924" stroke="#0f1924"></path><path d="M176 408L206 424L238 379Z" fill="#19222c" stroke="#19222c"></path><path d="M379 519L380 559L422 533Z" fill="#19222c" stroke="#19222c"></path><path d="M422 533L467 600L503 513Z" fill="#0f1924" stroke="#0f1924"></path><path d="M312 555L380 559L379 519Z" fill="#2e343c" stroke="#2e343c"></path><path d="M529 546L589 522L527 512Z" fill="#2e343c" stroke="#2e343c"></path><path d="M206 424L239 466L295 416Z" fill="#242b34" stroke="#242b34"></path><path d="M299 463L312 555L379 519Z" fill="#0f1924" stroke="#0f1924"></path><path d="M206 424L295 416L238 379Z" fill="#393e45" stroke="#393e45"></path><path d="M369 106L293 150L317 184Z" fill="#44484e" stroke="#44484e"></path><path d="M317 184L265 166L294 227Z" fill="#19222c" stroke="#19222c"></path><path d="M265 166L213 266L282 235Z" fill="#4f5257" stroke="#4f5257"></path><path d="M225 273L192 283L236 347Z" fill="#5b5d60" stroke="#5b5d60"></path><path d="M643 513L670 429L591 432Z" fill="#00101c" stroke="#00101c"></path><path d="M293 150L281 158L317 184Z" fill="#666769" stroke="#666769"></path><path d="M365 600L385 576L380 559Z" fill="#4f5257" stroke="#4f5257"></path><path d="M380 559L385 576L422 533Z" fill="#4f5257" stroke="#4f5257"></path><path d="M419 83L369 106L422 131Z" fill="#00101c" stroke="#00101c"></path><path d="M422 131L369 106L415 162Z" fill="#4f5257" stroke="#4f5257"></path><path d="M278 70L281 158L293 150Z" fill="#0f1924" stroke="#0f1924"></path><path d="M254 65L265 166L281 158Z" fill="#19222c" stroke="#19222c"></path><path d="M281 158L265 166L317 184Z" fill="#5b5d60" stroke="#5b5d60"></path><path d="M706 239L650 192L626 241Z" fill="#666769" stroke="#666769"></path><path d="M626 241L650 192L617 229Z" fill="#19222c" stroke="#19222c"></path><path d="M701 269L626 241L660 318Z" fill="#5b5d60" stroke="#5b5d60"></path><path d="M176 408L238 379L236 347Z" fill="#242b34" stroke="#242b34"></path><path d="M229 517L312 555L299 463Z" fill="#00101c" stroke="#00101c"></path><path d="M620 116L581 122L573 154Z" fill="#4f5257" stroke="#4f5257"></path><path d="M573 154L510 78L517 181Z" fill="#393e45" stroke="#393e45"></path><path d="M475 79L422 131L456 160Z" fill="#0f1924" stroke="#0f1924"></path><path d="M148 285L192 283L123 231Z" fill="#0f1924" stroke="#0f1924"></path><path d="M213 266L192 283L225 273Z" fill="#0f1924" stroke="#0f1924"></path><path d="M510 78L456 160L517 181Z" fill="#44484e" stroke="#44484e"></path><path d="M390 600L467 600L385 576Z" fill="#44484e" stroke="#44484e"></path><path d="M385 576L467 600L422 533Z" fill="#727272" stroke="#727272"></path><path d="M605 572L634 542L589 522Z" fill="#393e45" stroke="#393e45"></path><path d="M589 522L643 513L591 432Z" fill="#666769" stroke="#666769"></path><path d="M634 542L643 513L589 522Z" fill="#5b5d60" stroke="#5b5d60"></path><path d="M714 364L660 318L668 380Z" fill="#4f5257" stroke="#4f5257"></path><path d="M717 311L701 269L660 318Z" fill="#242b34" stroke="#242b34"></path><path d="M365 600L390 600L385 576Z" fill="#666769" stroke="#666769"></path><path d="M581 122L510 78L573 154Z" fill="#393e45" stroke="#393e45"></path><path d="M467 600L510 600L529 546Z" fill="#00101c" stroke="#00101c"></path><path d="M510 78L485 72L475 79Z" fill="#2e343c" stroke="#2e343c"></path><path d="M475 79L484 49L419 83Z" fill="#0f1924" stroke="#0f1924"></path><path d="M324 46L354 84L334 0Z" fill="#242b34" stroke="#242b34"></path><path d="M419 83L354 84L369 106Z" fill="#5b5d60" stroke="#5b5d60"></path><path d="M369 106L310 80L293 150Z" fill="#393e45" stroke="#393e45"></path><path d="M726 386L668 380L729 402Z" fill="#242b34" stroke="#242b34"></path><path d="M726 386L714 364L668 380Z" fill="#0f1924" stroke="#0f1924"></path><path d="M312 555L365 600L380 559Z" fill="#00101c" stroke="#00101c"></path><path d="M643 513L695 447L670 429Z" fill="#5b5d60" stroke="#5b5d60"></path><path d="M714 364L717 311L660 318Z" fill="#393e45" stroke="#393e45"></path><path d="M144 375L176 408L236 347Z" fill="#2e343c" stroke="#2e343c"></path><path d="M220 519L229 517L239 466Z" fill="#00101c" stroke="#00101c"></path><path d="M239 466L229 517L299 463Z" fill="#0f1924" stroke="#0f1924"></path><path d="M605 572L589 522L529 546Z" fill="#0f1924" stroke="#0f1924"></path><path d="M643 513L724 490L695 447Z" fill="#4f5257" stroke="#4f5257"></path><path d="M148 285L166 316L192 283Z" fill="#2e343c" stroke="#2e343c"></path><path d="M192 283L166 316L236 347Z" fill="#727272" stroke="#727272"></path><path d="M220 519L239 466L173 530Z" fill="#19222c" stroke="#19222c"></path><path d="M312 555L267 600L365 600Z" fill="#242b34" stroke="#242b34"></path><path d="M701 269L706 239L626 241Z" fill="#666769" stroke="#666769"></path><path d="M650 192L620 116L578 180Z" fill="#242b34" stroke="#242b34"></path><path d="M766 229L706 239L701 269Z" fill="#5b5d60" stroke="#5b5d60"></path><path d="M572 600L605 572L529 546Z" fill="#5b5d60" stroke="#5b5d60"></path><path d="M679 158L620 116L650 192Z" fill="#00101c" stroke="#00101c"></path><path d="M581 122L569 77L510 78Z" fill="#44484e" stroke="#44484e"></path><path d="M729 402L668 380L670 429Z" fill="#666769" stroke="#666769"></path><path d="M784 324L780 313L717 311Z" fill="#00101c" stroke="#00101c"></path><path d="M173 530L239 466L206 424Z" fill="#0f1924" stroke="#0f1924"></path><path d="M229 517L267 600L312 555Z" fill="#393e45" stroke="#393e45"></path><path d="M594 66L569 77L581 122Z" fill="#00101c" stroke="#00101c"></path><path d="M510 78L484 49L485 72Z" fill="#19222c" stroke="#19222c"></path><path d="M510 600L572 600L529 546Z" fill="#00101c" stroke="#00101c"></path><path d="M278 70L310 80L324 46Z" fill="#4f5257" stroke="#4f5257"></path><path d="M354 84L310 80L369 106Z" fill="#5b5d60" stroke="#5b5d60"></path><path d="M123 231L192 283L213 266Z" fill="#242b34" stroke="#242b34"></path><path d="M695 447L729 402L670 429Z" fill="#5b5d60" stroke="#5b5d60"></path><path d="M784 324L717 311L714 364Z" fill="#5b5d60" stroke="#5b5d60"></path><path d="M742 451L729 402L695 447Z" fill="#5b5d60" stroke="#5b5d60"></path><path d="M555 33L484 49L510 78Z" fill="#393e45" stroke="#393e45"></path><path d="M485 72L484 49L475 79Z" fill="#0f1924" stroke="#0f1924"></path><path d="M572 600L577 600L605 572Z" fill="#0f1924" stroke="#0f1924"></path><path d="M713 196L679 158L650 192Z" fill="#727272" stroke="#727272"></path><path d="M620 116L594 66L581 122Z" fill="#5b5d60" stroke="#5b5d60"></path><path d="M183 168L213 266L265 166Z" fill="#0f1924" stroke="#0f1924"></path><path d="M166 316L144 375L236 347Z" fill="#00101c" stroke="#00101c"></path><path d="M135 331L144 375L166 316Z" fill="#393e45" stroke="#393e45"></path><path d="M176 408L129 420L206 424Z" fill="#0f1924" stroke="#0f1924"></path><path d="M766 229L713 196L706 239Z" fill="#727272" stroke="#727272"></path><path d="M706 239L713 196L650 192Z" fill="#44484e" stroke="#44484e"></path><path d="M766 229L701 269L717 311Z" fill="#2e343c" stroke="#2e343c"></path><path d="M683 143L629 95L620 116Z" fill="#727272" stroke="#727272"></path><path d="M569 77L555 33L510 78Z" fill="#00101c" stroke="#00101c"></path><path d="M683 143L620 116L679 158Z" fill="#0f1924" stroke="#0f1924"></path><path d="M693 131L683 143L679 158Z" fill="#4f5257" stroke="#4f5257"></path><path d="M148 285L135 331L166 316Z" fill="#0f1924" stroke="#0f1924"></path><path d="M629 95L594 66L620 116Z" fill="#0f1924" stroke="#0f1924"></path><path d="M185 150L183 168L265 166Z" fill="#393e45" stroke="#393e45"></path><path d="M214 565L267 600L229 517Z" fill="#242b34" stroke="#242b34"></path><path d="M324 46L310 80L354 84Z" fill="#19222c" stroke="#19222c"></path><path d="M310 80L278 70L293 150Z" fill="#2e343c" stroke="#2e343c"></path><path d="M429 0L354 84L419 83Z" fill="#0f1924" stroke="#0f1924"></path><path d="M123 231L132 280L148 285Z" fill="#727272" stroke="#727272"></path><path d="M148 285L132 280L135 331Z" fill="#19222c" stroke="#19222c"></path><path d="M640 600L634 542L605 572Z" fill="#19222c" stroke="#19222c"></path><path d="M667 582L643 513L634 542Z" fill="#5b5d60" stroke="#5b5d60"></path><path d="M667 582L724 490L643 513Z" fill="#4f5257" stroke="#4f5257"></path><path d="M724 490L742 451L695 447Z" fill="#727272" stroke="#727272"></path><path d="M784 324L714 364L786 353Z" fill="#393e45" stroke="#393e45"></path><path d="M176 117L185 150L198 77Z" fill="#00101c" stroke="#00101c"></path><path d="M183 168L123 231L213 266Z" fill="#242b34" stroke="#242b34"></path><path d="M117 372L125 377L144 375Z" fill="#19222c" stroke="#19222c"></path><path d="M144 375L129 420L176 408Z" fill="#2e343c" stroke="#2e343c"></path><path d="M220 519L214 565L229 517Z" fill="#5b5d60" stroke="#5b5d60"></path><path d="M117 372L144 375L135 331Z" fill="#4f5257" stroke="#4f5257"></path><path d="M173 530L214 565L220 519Z" fill="#666769" stroke="#666769"></path><path d="M713 196L693 131L679 158Z" fill="#727272" stroke="#727272"></path><path d="M683 143L693 131L629 95Z" fill="#00101c" stroke="#00101c"></path><path d="M629 95L628 28L594 66Z" fill="#19222c" stroke="#19222c"></path><path d="M533 0L555 33L589 0Z" fill="#5b5d60" stroke="#5b5d60"></path><path d="M594 66L555 33L569 77Z" fill="#0f1924" stroke="#0f1924"></path><path d="M484 49L441 0L419 83Z" fill="#44484e" stroke="#44484e"></path><path d="M125 377L129 420L144 375Z" fill="#666769" stroke="#666769"></path><path d="M577 600L640 600L605 572Z" fill="#5b5d60" stroke="#5b5d60"></path><path d="M72 386L117 372L47 318Z" fill="#2e343c" stroke="#2e343c"></path><path d="M125 377L117 372L129 420Z" fill="#727272" stroke="#727272"></path><path d="M716 600L736 492L724 490Z" fill="#242b34" stroke="#242b34"></path><path d="M724 490L736 492L742 451Z" fill="#242b34" stroke="#242b34"></path><path d="M640 600L667 582L634 542Z" fill="#2e343c" stroke="#2e343c"></path><path d="M129 420L173 530L206 424Z" fill="#44484e" stroke="#44484e"></path><path d="M260 0L254 65L278 70Z" fill="#00101c" stroke="#00101c"></path><path d="M278 70L254 65L281 158Z" fill="#44484e" stroke="#44484e"></path><path d="M726 386L729 402L786 353Z" fill="#19222c" stroke="#19222c"></path><path d="M714 364L726 386L786 353Z" fill="#2e343c" stroke="#2e343c"></path><path d="M713 196L758 137L693 131Z" fill="#19222c" stroke="#19222c"></path><path d="M176 117L152 169L185 150Z" fill="#393e45" stroke="#393e45"></path><path d="M185 150L152 169L183 168Z" fill="#666769" stroke="#666769"></path><path d="M516 0L441 0L484 49Z" fill="#4f5257" stroke="#4f5257"></path><path d="M324 46L260 0L278 70Z" fill="#393e45" stroke="#393e45"></path><path d="M152 169L123 231L183 168Z" fill="#2e343c" stroke="#2e343c"></path><path d="M47 318L117 372L135 331Z" fill="#242b34" stroke="#242b34"></path><path d="M441 0L429 0L419 83Z" fill="#2e343c" stroke="#2e343c"></path><path d="M780 313L766 229L717 311Z" fill="#727272" stroke="#727272"></path><path d="M786 353L729 402L811 431Z" fill="#242b34" stroke="#242b34"></path><path d="M777 179L771 179L766 229Z" fill="#0f1924" stroke="#0f1924"></path><path d="M811 431L729 402L742 451Z" fill="#727272" stroke="#727272"></path><path d="M175 577L183 563L173 530Z" fill="#393e45" stroke="#393e45"></path><path d="M173 530L183 563L214 565Z" fill="#44484e" stroke="#44484e"></path><path d="M214 565L214 600L267 600Z" fill="#666769" stroke="#666769"></path><path d="M533 0L516 0L555 33Z" fill="#44484e" stroke="#44484e"></path><path d="M555 33L516 0L484 49Z" fill="#0f1924" stroke="#0f1924"></path><path d="M198 77L185 150L265 166Z" fill="#727272" stroke="#727272"></path><path d="M152 169L86 179L123 231Z" fill="#00101c" stroke="#00101c"></path><path d="M197 600L214 600L214 565Z" fill="#2e343c" stroke="#2e343c"></path><path d="M589 0L555 33L594 66Z" fill="#0f1924" stroke="#0f1924"></path><path d="M429 0L334 0L354 84Z" fill="#393e45" stroke="#393e45"></path><path d="M254 65L198 77L265 166Z" fill="#4f5257" stroke="#4f5257"></path><path d="M334 0L333 0L324 46Z" fill="#44484e" stroke="#44484e"></path><path d="M203 28L198 77L254 65Z" fill="#393e45" stroke="#393e45"></path><path d="M93 600L175 577L173 530Z" fill="#2e343c" stroke="#2e343c"></path><path d="M183 563L197 600L214 565Z" fill="#4f5257" stroke="#4f5257"></path><path d="M175 577L197 600L183 563Z" fill="#666769" stroke="#666769"></path><path d="M668 0L629 95L727 13Z" fill="#5b5d60" stroke="#5b5d60"></path><path d="M668 0L628 28L629 95Z" fill="#4f5257" stroke="#4f5257"></path><path d="M198 77L185 84L176 117Z" fill="#242b34" stroke="#242b34"></path><path d="M102 96L86 179L152 169Z" fill="#2e343c" stroke="#2e343c"></path><path d="M203 28L185 84L198 77Z" fill="#4f5257" stroke="#4f5257"></path><path d="M777 179L766 229L841 223Z" fill="#666769" stroke="#666769"></path><path d="M766 229L771 179L713 196Z" fill="#4f5257" stroke="#4f5257"></path><path d="M72 386L95 451L129 420Z" fill="#4f5257" stroke="#4f5257"></path><path d="M129 420L92 488L173 530Z" fill="#666769" stroke="#666769"></path><path d="M72 386L129 420L117 372Z" fill="#4f5257" stroke="#4f5257"></path><path d="M175 577L186 600L197 600Z" fill="#666769" stroke="#666769"></path><path d="M93 600L186 600L175 577Z" fill="#4f5257" stroke="#4f5257"></path><path d="M628 28L589 0L594 66Z" fill="#727272" stroke="#727272"></path><path d="M816 275L766 229L780 313Z" fill="#00101c" stroke="#00101c"></path><path d="M771 179L758 137L713 196Z" fill="#00101c" stroke="#00101c"></path><path d="M816 275L780 313L784 324Z" fill="#2e343c" stroke="#2e343c"></path><path d="M777 179L758 137L771 179Z" fill="#0f1924" stroke="#0f1924"></path><path d="M47 318L135 331L132 280Z" fill="#5b5d60" stroke="#5b5d60"></path><path d="M667 582L716 600L724 490Z" fill="#00101c" stroke="#00101c"></path><path d="M814 488L811 431L742 451Z" fill="#5b5d60" stroke="#5b5d60"></path><path d="M640 600L716 600L667 582Z" fill="#0f1924" stroke="#0f1924"></path><path d="M834 355L784 324L786 353Z" fill="#727272" stroke="#727272"></path><path d="M845 329L816 275L784 324Z" fill="#5b5d60" stroke="#5b5d60"></path><path d="M814 488L742 451L736 492Z" fill="#5b5d60" stroke="#5b5d60"></path><path d="M83 489L92 488L95 451Z" fill="#5b5d60" stroke="#5b5d60"></path><path d="M95 451L92 488L129 420Z" fill="#0f1924" stroke="#0f1924"></path><path d="M716 600L727 600L736 492Z" fill="#393e45" stroke="#393e45"></path><path d="M333 0L260 0L324 46Z" fill="#5b5d60" stroke="#5b5d60"></path><path d="M811 431L834 355L786 353Z" fill="#666769" stroke="#666769"></path><path d="M44 426L83 489L95 451Z" fill="#19222c" stroke="#19222c"></path><path d="M73 574L93 600L173 530Z" fill="#5b5d60" stroke="#5b5d60"></path><path d="M102 96L152 169L176 117Z" fill="#19222c" stroke="#19222c"></path><path d="M49 230L47 318L132 280Z" fill="#2e343c" stroke="#2e343c"></path><path d="M143 74L176 117L185 84Z" fill="#242b34" stroke="#242b34"></path><path d="M231 0L203 28L254 65Z" fill="#4f5257" stroke="#4f5257"></path><path d="M49 230L132 280L123 231Z" fill="#44484e" stroke="#44484e"></path><path d="M72 386L44 426L95 451Z" fill="#00101c" stroke="#00101c"></path><path d="M822 525L814 488L736 492Z" fill="#19222c" stroke="#19222c"></path><path d="M811 431L860 376L834 355Z" fill="#4f5257" stroke="#4f5257"></path><path d="M260 0L231 0L254 65Z" fill="#242b34" stroke="#242b34"></path><path d="M834 355L845 329L784 324Z" fill="#5b5d60" stroke="#5b5d60"></path><path d="M816 275L841 223L766 229Z" fill="#5b5d60" stroke="#5b5d60"></path><path d="M777 179L831 169L758 137Z" fill="#666769" stroke="#666769"></path><path d="M860 376L845 329L834 355Z" fill="#0f1924" stroke="#0f1924"></path><path d="M203 28L143 74L185 84Z" fill="#00101c" stroke="#00101c"></path><path d="M102 96L143 74L111 79Z" fill="#242b34" stroke="#242b34"></path><path d="M727 13L629 95L693 131Z" fill="#393e45" stroke="#393e45"></path><path d="M628 28L668 0L589 0Z" fill="#393e45" stroke="#393e45"></path><path d="M727 600L777 573L736 492Z" fill="#44484e" stroke="#44484e"></path><path d="M0 379L44 426L72 386Z" fill="#00101c" stroke="#00101c"></path><path d="M86 179L49 230L123 231Z" fill="#2e343c" stroke="#2e343c"></path><path d="M47 318L21 325L72 386Z" fill="#44484e" stroke="#44484e"></path><path d="M23 178L49 230L86 179Z" fill="#0f1924" stroke="#0f1924"></path><path d="M822 525L829 485L814 488Z" fill="#19222c" stroke="#19222c"></path><path d="M814 488L829 485L811 431Z" fill="#4f5257" stroke="#4f5257"></path><path d="M885 245L841 223L816 275Z" fill="#2e343c" stroke="#2e343c"></path><path d="M758 137L777 82L693 131Z" fill="#5b5d60" stroke="#5b5d60"></path><path d="M855 459L860 376L811 431Z" fill="#727272" stroke="#727272"></path><path d="M900 280L885 245L816 275Z" fill="#0f1924" stroke="#0f1924"></path><path d="M841 223L829 174L777 179Z" fill="#00101c" stroke="#00101c"></path><path d="M111 79L143 74L84 0Z" fill="#666769" stroke="#666769"></path><path d="M143 74L102 96L176 117Z" fill="#727272" stroke="#727272"></path><path d="M817 98L777 82L758 137Z" fill="#666769" stroke="#666769"></path><path d="M777 573L822 525L736 492Z" fill="#44484e" stroke="#44484e"></path><path d="M829 485L855 459L811 431Z" fill="#4f5257" stroke="#4f5257"></path><path d="M900 174L831 169L829 174Z" fill="#44484e" stroke="#44484e"></path><path d="M829 174L831 169L777 179Z" fill="#0f1924" stroke="#0f1924"></path><path d="M174 0L143 74L203 28Z" fill="#19222c" stroke="#19222c"></path><path d="M17 275L21 325L47 318Z" fill="#44484e" stroke="#44484e"></path><path d="M883 497L855 459L829 485Z" fill="#242b34" stroke="#242b34"></path><path d="M777 82L727 13L693 131Z" fill="#393e45" stroke="#393e45"></path><path d="M0 272L17 275L0 249Z" fill="#5b5d60" stroke="#5b5d60"></path><path d="M49 230L17 275L47 318Z" fill="#0f1924" stroke="#0f1924"></path><path d="M727 13L714 0L668 0Z" fill="#44484e" stroke="#44484e"></path><path d="M231 0L174 0L203 28Z" fill="#727272" stroke="#727272"></path><path d="M73 574L92 488L83 489Z" fill="#666769" stroke="#666769"></path><path d="M73 574L173 530L92 488Z" fill="#0f1924" stroke="#0f1924"></path><path d="M23 524L73 574L83 489Z" fill="#00101c" stroke="#00101c"></path><path d="M19 477L83 489L44 426Z" fill="#727272" stroke="#727272"></path><path d="M777 573L823 600L822 525Z" fill="#00101c" stroke="#00101c"></path><path d="M822 525L883 497L829 485Z" fill="#00101c" stroke="#00101c"></path><path d="M727 600L799 600L777 573Z" fill="#4f5257" stroke="#4f5257"></path><path d="M777 82L743 14L727 13Z" fill="#2e343c" stroke="#2e343c"></path><path d="M727 13L742 0L714 0Z" fill="#19222c" stroke="#19222c"></path><path d="M784 53L743 14L777 82Z" fill="#0f1924" stroke="#0f1924"></path><path d="M831 169L817 98L758 137Z" fill="#393e45" stroke="#393e45"></path><path d="M817 98L784 53L777 82Z" fill="#0f1924" stroke="#0f1924"></path><path d="M0 272L0 344L21 325Z" fill="#0f1924" stroke="#0f1924"></path><path d="M21 325L0 379L72 386Z" fill="#4f5257" stroke="#4f5257"></path><path d="M0 344L0 379L21 325Z" fill="#44484e" stroke="#44484e"></path><path d="M0 429L19 477L44 426Z" fill="#393e45" stroke="#393e45"></path><path d="M0 249L17 275L49 230Z" fill="#242b34" stroke="#242b34"></path><path d="M17 275L0 272L21 325Z" fill="#727272" stroke="#727272"></path><path d="M23 178L86 179L44 110Z" fill="#5b5d60" stroke="#5b5d60"></path><path d="M900 280L816 275L845 329Z" fill="#393e45" stroke="#393e45"></path><path d="M841 223L900 174L829 174Z" fill="#19222c" stroke="#19222c"></path><path d="M831 169L834 96L817 98Z" fill="#2e343c" stroke="#2e343c"></path><path d="M900 313L845 329L860 376Z" fill="#2e343c" stroke="#2e343c"></path><path d="M44 110L102 96L35 29Z" fill="#19222c" stroke="#19222c"></path><path d="M44 110L86 179L102 96Z" fill="#00101c" stroke="#00101c"></path><path d="M816 0L742 0L743 14Z" fill="#666769" stroke="#666769"></path><path d="M743 14L742 0L727 13Z" fill="#00101c" stroke="#00101c"></path><path d="M0 214L0 249L49 230Z" fill="#5b5d60" stroke="#5b5d60"></path><path d="M0 379L0 429L44 426Z" fill="#5b5d60" stroke="#5b5d60"></path><path d="M900 393L900 313L860 376Z" fill="#666769" stroke="#666769"></path><path d="M0 580L69 600L73 574Z" fill="#0f1924" stroke="#0f1924"></path><path d="M73 574L69 600L93 600Z" fill="#242b34" stroke="#242b34"></path><path d="M900 475L900 393L855 459Z" fill="#00101c" stroke="#00101c"></path><path d="M855 459L900 393L860 376Z" fill="#727272" stroke="#727272"></path><path d="M817 98L834 96L784 53Z" fill="#242b34" stroke="#242b34"></path><path d="M784 53L816 0L743 14Z" fill="#393e45" stroke="#393e45"></path><path d="M900 118L834 96L831 169Z" fill="#666769" stroke="#666769"></path><path d="M900 313L900 280L845 329Z" fill="#666769" stroke="#666769"></path><path d="M885 245L900 224L841 223Z" fill="#44484e" stroke="#44484e"></path><path d="M799 600L823 600L777 573Z" fill="#00101c" stroke="#00101c"></path><path d="M19 477L23 524L83 489Z" fill="#44484e" stroke="#44484e"></path><path d="M0 518L23 524L19 477Z" fill="#2e343c" stroke="#2e343c"></path><path d="M35 29L102 96L111 79Z" fill="#0f1924" stroke="#0f1924"></path><path d="M23 178L0 214L49 230Z" fill="#44484e" stroke="#44484e"></path><path d="M0 119L0 214L23 178Z" fill="#00101c" stroke="#00101c"></path><path d="M858 567L883 497L822 525Z" fill="#44484e" stroke="#44484e"></path><path d="M900 280L900 224L885 245Z" fill="#393e45" stroke="#393e45"></path><path d="M823 600L858 567L822 525Z" fill="#4f5257" stroke="#4f5257"></path><path d="M883 497L900 475L855 459Z" fill="#5b5d60" stroke="#5b5d60"></path><path d="M900 507L900 475L883 497Z" fill="#19222c" stroke="#19222c"></path><path d="M0 429L0 518L19 477Z" fill="#4f5257" stroke="#4f5257"></path><path d="M23 524L0 580L73 574Z" fill="#00101c" stroke="#00101c"></path><path d="M900 224L900 174L841 223Z" fill="#00101c" stroke="#00101c"></path><path d="M900 521L900 507L883 497Z" fill="#0f1924" stroke="#0f1924"></path><path d="M858 567L900 521L883 497Z" fill="#242b34" stroke="#242b34"></path><path d="M900 101L860 74L834 96Z" fill="#2e343c" stroke="#2e343c"></path><path d="M834 96L860 74L784 53Z" fill="#19222c" stroke="#19222c"></path><path d="M174 0L84 0L143 74Z" fill="#727272" stroke="#727272"></path><path d="M44 110L0 119L23 178Z" fill="#666769" stroke="#666769"></path><path d="M0 71L0 119L44 110Z" fill="#727272" stroke="#727272"></path><path d="M84 0L75 0L111 79Z" fill="#0f1924" stroke="#0f1924"></path><path d="M860 74L816 0L784 53Z" fill="#00101c" stroke="#00101c"></path><path d="M0 518L0 580L23 524Z" fill="#44484e" stroke="#44484e"></path><path d="M900 174L900 118L831 169Z" fill="#2e343c" stroke="#2e343c"></path><path d="M860 74L844 0L816 0Z" fill="#44484e" stroke="#44484e"></path><path d="M75 0L35 29L111 79Z" fill="#393e45" stroke="#393e45"></path><path d="M900 118L900 101L834 96Z" fill="#44484e" stroke="#44484e"></path><path d="M0 580L0 600L69 600Z" fill="#19222c" stroke="#19222c"></path><path d="M35 29L0 71L44 110Z" fill="#666769" stroke="#666769"></path><path d="M35 29L0 64L0 71Z" fill="#5b5d60" stroke="#5b5d60"></path><path d="M900 0L844 0L860 74Z" fill="#242b34" stroke="#242b34"></path><path d="M823 600L900 600L858 567Z" fill="#2e343c" stroke="#2e343c"></path><path d="M858 567L900 600L900 521Z" fill="#727272" stroke="#727272"></path><path d="M900 101L900 71L860 74Z" fill="#00101c" stroke="#00101c"></path><path d="M75 0L0 0L35 29Z" fill="#242b34" stroke="#242b34"></path><path d="M35 29L0 0L0 64Z" fill="#727272" stroke="#727272"></path><path d="M900 71L900 0L860 74Z" fill="#666769" stroke="#666769"></path></g></svg>