<svg width="18" height="12" viewBox="0 0 18 12" fill="none" xmlns="http://www.w3.org/2000/svg">
<rect x="0.5" y="0.68457" width="17" height="11" rx="1" fill="#EDEDF1"/>
<path d="M6.62198 1.96257C7.42131 1.96257 8.02998 2.1459 8.44798 2.51257C8.86598 2.8719 9.07498 3.34124 9.07498 3.92057C9.07498 4.08924 9.06031 4.2469 9.03098 4.39357C8.94298 4.9069 8.71931 5.36524 8.35998 5.76857C8.00065 6.1719 7.52031 6.4579 6.91898 6.62657L8.16198 9.68457H6.03898L4.94998 6.76957H4.49898L3.98198 9.68457H2.10098L3.46498 1.96257H6.62198ZM7.10598 4.47057C7.12065 4.35324 7.12798 4.27624 7.12798 4.23957C7.12798 4.0049 7.05098 3.82524 6.89698 3.70057C6.75031 3.56857 6.53031 3.50257 6.23698 3.50257H5.07098L4.72998 5.43857H5.89598C6.24065 5.43857 6.51198 5.35424 6.70998 5.18557C6.91531 5.0169 7.04731 4.77857 7.10598 4.47057ZM16.0858 4.44857C16.0124 4.8959 15.8401 5.30657 15.5688 5.68057C15.2974 6.04724 14.9271 6.34424 14.4578 6.57157C13.9958 6.7989 13.4494 6.91257 12.8188 6.91257H11.6528L11.1578 9.68457H9.27676L10.6408 1.96257H13.6878C14.4944 1.96257 15.1031 2.14224 15.5138 2.50157C15.9244 2.85357 16.1298 3.3339 16.1298 3.94257C16.1298 4.1259 16.1151 4.29457 16.0858 4.44857ZM12.9288 5.43857C13.6328 5.43857 14.0471 5.10857 14.1718 4.44857C14.1864 4.33124 14.1938 4.2469 14.1938 4.19557C14.1938 3.9609 14.1168 3.78124 13.9628 3.65657C13.8161 3.52457 13.5888 3.45857 13.2808 3.45857H12.2578L11.9168 5.43857H12.9288Z" fill="#181920"/>
</svg>
