<svg width="11" height="19" viewBox="0 0 11 19" fill="none" xmlns="http://www.w3.org/2000/svg">
<path d="M10.5018 0.36699C10.3857 0.250582 10.2478 0.158225 10.0959 0.0952089C9.94406 0.0321928 9.78126 -0.000244141 9.61684 -0.000244141C9.45242 -0.000244141 9.28962 0.0321928 9.13775 0.0952089C8.98589 0.158225 8.84795 0.250582 8.73184 0.36699L0.421839 8.67699C0.329135 8.7695 0.255588 8.87939 0.205406 9.00037C0.155225 9.12134 0.129395 9.25102 0.129395 9.38199C0.129395 9.51296 0.155225 9.64264 0.205406 9.76361C0.255588 9.88459 0.329135 9.99448 0.421839 10.087L8.73184 18.397C9.22184 18.887 10.0118 18.887 10.5018 18.397C10.9918 17.907 10.9918 17.117 10.5018 16.627L3.26184 9.37699L10.5118 2.12699C10.9918 1.64699 10.9918 0.84699 10.5018 0.36699Z" fill="#EDEDF1"/>
</svg>
