<svg width="21" height="20" viewBox="0 0 21 20" fill="none" xmlns="http://www.w3.org/2000/svg">
<path d="M7.81061 10.9398C8.08271 10.6689 8.44831 10.5127 8.83212 10.5033C9.21593 10.4939 9.58874 10.632 9.87377 10.8893C10.1588 11.1465 10.3343 11.5032 10.3643 11.8859C10.3942 12.2687 10.2762 12.6484 10.0346 12.9468L9.93161 13.0608L5.99061 16.9998H7.37061C7.75582 16.9999 8.1262 17.1483 8.40499 17.4142C8.68378 17.68 8.84962 18.0429 8.86813 18.4277C8.88664 18.8124 8.75641 19.1896 8.50443 19.481C8.25245 19.7723 7.89802 19.9556 7.51461 19.9928L7.37061 19.9998H2.37061C1.99772 19.9997 1.63821 19.8608 1.36219 19.6101C1.08616 19.3594 0.913402 19.0149 0.877605 18.6438L0.870605 18.4998V13.4998C0.870796 13.1145 1.01918 12.7442 1.28501 12.4654C1.55085 12.1866 1.91375 12.0207 2.29852 12.0022C2.68329 11.9837 3.06044 12.1139 3.35181 12.3659C3.64318 12.6179 3.82643 12.9723 3.86361 13.3558L3.87061 13.4998V14.8788L7.81061 10.9398ZM19.3706 -0.000244141C19.7435 -0.000226242 20.103 0.138676 20.379 0.389375C20.6551 0.640074 20.8278 0.984595 20.8636 1.35576L20.8706 1.49976V6.49976C20.8704 6.88497 20.722 7.25535 20.4562 7.53414C20.1904 7.81293 19.8275 7.97877 19.4427 7.99728C19.0579 8.01579 18.6808 7.88556 18.3894 7.63358C18.098 7.3816 17.9148 7.02717 17.8776 6.64376L17.8706 6.49976V5.12076L13.9306 9.06076C13.6588 9.33352 13.2926 9.49132 12.9076 9.50149C12.5227 9.51165 12.1486 9.3734 11.8628 9.11536C11.577 8.85732 11.4014 8.49925 11.3723 8.11529C11.3432 7.73133 11.4629 7.3509 11.7066 7.05276L11.8096 6.93876L15.7506 2.99976H14.3706C13.9854 2.99957 13.615 2.85118 13.3362 2.58535C13.0574 2.31951 12.8916 1.95661 12.8731 1.57184C12.8546 1.18707 12.9848 0.809924 13.2368 0.518554C13.4888 0.227185 13.8432 0.0439274 14.2266 0.00675583L14.3706 -0.000244141H19.3706Z" fill="#F6F7F9"/>
</svg>
