<svg width="24" height="24" viewBox="0 0 24 24" fill="none" xmlns="http://www.w3.org/2000/svg">
<g clip-path="url(#clip0_285_873)">
<path d="M10.5 12C10.8729 12 11.2324 12.1389 11.5084 12.3896C11.7844 12.6403 11.9572 12.9848 11.993 13.356L12 13.5V18.5C11.9998 18.8852 11.8514 19.2556 11.5856 19.5343C11.3198 19.8131 10.9569 19.979 10.5721 19.9975C10.1873 20.016 9.81017 19.8858 9.5188 19.6338C9.22743 19.3818 9.04417 19.0274 9.007 18.644L9 18.5V17.121L5.06 21.061C4.78821 21.3337 4.42194 21.4915 4.03702 21.5017C3.6521 21.5119 3.27801 21.3736 2.99221 21.1156C2.70641 20.8575 2.53079 20.4994 2.50171 20.1155C2.47263 19.7315 2.59232 19.3511 2.836 19.053L2.939 18.939L6.88 15H5.5C5.11478 14.9998 4.7444 14.8514 4.46561 14.5855C4.18682 14.3197 4.02098 13.9568 4.00247 13.572C3.98396 13.1873 4.11419 12.8101 4.36617 12.5188C4.61816 12.2274 4.97258 12.0441 5.356 12.007L5.5 12H10.5ZM18.94 2.93996C19.2121 2.6691 19.5777 2.5129 19.9615 2.5035C20.3453 2.49411 20.7181 2.63224 21.0032 2.88946C21.2882 3.14667 21.4637 3.50339 21.4937 3.88615C21.5236 4.26891 21.4056 4.64857 21.164 4.94696L21.061 5.06096L17.12 8.99996H18.5C18.8852 9.00015 19.2556 9.14853 19.5344 9.41437C19.8132 9.6802 19.979 10.0431 19.9975 10.4279C20.016 10.8126 19.8858 11.1898 19.6338 11.4812C19.3818 11.7725 19.0274 11.9558 18.644 11.993L18.5 12H13.5C13.1271 11.9999 12.7676 11.861 12.4916 11.6103C12.2156 11.3596 12.0428 11.0151 12.007 10.644L12 10.5V5.49996C12.0002 5.11474 12.1486 4.74436 12.4144 4.46557C12.6802 4.18678 13.0431 4.02095 13.4279 4.00243C13.8127 3.98392 14.1898 4.11415 14.4812 4.36613C14.7726 4.61812 14.9558 4.97254 14.993 5.35596L15 5.49996V6.87896L18.94 2.93896V2.93996Z" fill="#F6F7F9"/>
</g>
<defs>
<clipPath id="clip0_285_873">
<rect width="24" height="24" fill="white"/>
</clipPath>
</defs>
</svg>
