<svg width="15" height="15" viewBox="0 0 15 15" fill="none" xmlns="http://www.w3.org/2000/svg">
<path fill-rule="evenodd" clip-rule="evenodd" d="M1.63706 2.08494C1.12072 2.59441 0.710255 3.20098 0.429304 3.86973C0.148352 4.53849 0.00246094 5.25621 3.08668e-05 5.98157C-0.00239921 6.70694 0.13868 7.42563 0.415144 8.09624C0.691609 8.76686 1.098 9.37617 1.61091 9.88909C2.12383 10.402 2.73314 10.8084 3.40376 11.0849C4.07438 11.3613 4.79306 11.5024 5.51843 11.5C6.24379 11.4975 6.96151 11.3516 7.63027 11.0707C8.29902 10.7897 8.90559 10.3793 9.41506 9.86294C10.4351 8.82915 11.0048 7.43387 11 5.98157C10.9951 4.52928 10.416 3.13785 9.38909 2.11091C8.36215 1.08398 6.97072 0.504896 5.51843 0.500031C4.06613 0.495166 2.67085 1.06491 1.63706 2.08494ZM8.00106 8.44894C7.67604 8.77396 7.29018 9.03179 6.86552 9.20769C6.44086 9.38359 5.98571 9.47412 5.52606 9.47412C5.06641 9.47412 4.61126 9.38359 4.1866 9.20769C3.76194 9.03179 3.37608 8.77396 3.05106 8.44894C2.72604 8.12392 2.46821 7.73806 2.29231 7.3134C2.11641 6.88874 2.02588 6.43359 2.02588 5.97394C2.02588 5.51429 2.11641 5.05914 2.29231 4.63448C2.46821 4.20982 2.72604 3.82396 3.05106 3.49894C3.70747 2.84253 4.59775 2.47376 5.52606 2.47376C6.45436 2.47376 7.34465 2.84253 8.00106 3.49894C8.65747 4.15535 9.02624 5.04564 9.02624 5.97394C9.02624 6.90225 8.65747 7.79253 8.00106 8.44894Z" fill="#B5B6C4"/>
<path d="M8.35406 10.924C8.21473 10.7846 8.1042 10.6192 8.0288 10.4372C7.95339 10.2551 7.91458 10.06 7.91458 9.86297C7.91458 9.66592 7.95339 9.47081 8.0288 9.28876C8.1042 9.10671 8.21473 8.9413 8.35406 8.80197C8.49339 8.66264 8.65881 8.55211 8.84085 8.4767C9.0229 8.4013 9.21802 8.36249 9.41506 8.36249C9.61211 8.36249 9.80722 8.4013 9.98927 8.4767C10.1713 8.55211 10.3367 8.66264 10.4761 8.80197L14.0111 12.338C14.1543 12.4763 14.2686 12.6419 14.3472 12.8249C14.4258 13.0079 14.4672 13.2047 14.4689 13.4039C14.4707 13.603 14.4327 13.8006 14.3573 13.9849C14.2819 14.1692 14.1705 14.3367 14.0297 14.4776C13.8888 14.6184 13.7213 14.7298 13.537 14.8052C13.3526 14.8806 13.1551 14.9186 12.956 14.9168C12.7568 14.9151 12.56 14.8737 12.377 14.7951C12.1939 14.7165 12.0284 14.6022 11.8901 14.459L8.35406 10.924Z" fill="#B5B6C4"/>
</svg>
